<svg aria-hidden="true" style="position: absolute; width: 0; height: 0; overflow: hidden;" version="1.1" xmlns="http://www.w3.org/2000/svg" xmlns:xlink="http://www.w3.org/1999/xlink">
<defs>
<symbol id="icon-arrow-up8" viewBox="0 0 16 16">
<title>arrow-up8</title>
<path d="M13.707 6.293l-5-5c-0.39-0.391-1.024-0.391-1.414 0l-5 5c-0.391 0.391-0.391 1.024 0 1.414s1.024 0.391 1.414 0l3.293-3.293v9.586c0 0.552 0.448 1 1 1s1-0.448 1-1v-9.586l3.293 3.293c0.195 0.195 0.451 0.293 0.707 0.293s0.512-0.098 0.707-0.293c0.391-0.391 0.391-1.024 0-1.414z"></path>
</symbol>
<symbol id="icon-arrow-down8" viewBox="0 0 16 16">
<title>arrow-down8</title>
<path d="M13.707 9.707l-5 5c-0.39 0.391-1.024 0.391-1.414 0l-5-5c-0.391-0.391-0.391-1.024 0-1.414s1.024-0.391 1.414 0l3.293 3.293v-9.586c0-0.552 0.448-1 1-1s1 0.448 1 1v9.586l3.293-3.293c0.195-0.195 0.451-0.293 0.707-0.293s0.512 0.098 0.707 0.293c0.391 0.391 0.391 1.024 0 1.414z"></path>
</symbol>
<symbol id="icon-facebook" viewBox="0 0 16 16">
<title>facebook</title>
<path d="M9.5 3h2.5v-3h-2.5c-1.93 0-3.5 1.57-3.5 3.5v1.5h-2v3h2v8h3v-8h2.5l0.5-3h-3v-1.5c0-0.271 0.229-0.5 0.5-0.5z"></path>
</symbol>
<symbol id="icon-instagram" viewBox="0 0 16 16">
<title>instagram</title>
<path d="M14.5 0h-13c-0.825 0-1.5 0.675-1.5 1.5v13c0 0.825 0.675 1.5 1.5 1.5h13c0.825 0 1.5-0.675 1.5-1.5v-13c0-0.825-0.675-1.5-1.5-1.5zM11 2.5c0-0.275 0.225-0.5 0.5-0.5h2c0.275 0 0.5 0.225 0.5 0.5v2c0 0.275-0.225 0.5-0.5 0.5h-2c-0.275 0-0.5-0.225-0.5-0.5v-2zM8 5c1.656 0 3 1.344 3 3s-1.344 3-3 3c-1.656 0-3-1.344-3-3s1.344-3 3-3zM14 13.5v0c0 0.275-0.225 0.5-0.5 0.5h-11c-0.275 0-0.5-0.225-0.5-0.5v0-6.5h1.1c-0.066 0.322-0.1 0.656-0.1 1 0 2.762 2.237 5 5 5s5-2.238 5-5c0-0.344-0.034-0.678-0.1-1h1.1v6.5z"></path>
</symbol>
<symbol id="icon-twitter" viewBox="0 0 16 16">
<title>twitter</title>
<path d="M16 3.538c-0.588 0.263-1.222 0.438-1.884 0.516 0.678-0.406 1.197-1.050 1.444-1.816-0.634 0.375-1.338 0.65-2.084 0.797-0.6-0.638-1.453-1.034-2.397-1.034-1.813 0-3.281 1.469-3.281 3.281 0 0.256 0.028 0.506 0.084 0.747-2.728-0.138-5.147-1.444-6.766-3.431-0.281 0.484-0.444 1.050-0.444 1.65 0 1.138 0.578 2.144 1.459 2.731-0.538-0.016-1.044-0.166-1.488-0.409 0 0.013 0 0.028 0 0.041 0 1.591 1.131 2.919 2.634 3.219-0.275 0.075-0.566 0.116-0.866 0.116-0.212 0-0.416-0.022-0.619-0.059 0.419 1.303 1.631 2.253 3.066 2.281-1.125 0.881-2.538 1.406-4.078 1.406-0.266 0-0.525-0.016-0.784-0.047 1.456 0.934 3.181 1.475 5.034 1.475 6.037 0 9.341-5.003 9.341-9.341 0-0.144-0.003-0.284-0.009-0.425 0.641-0.459 1.197-1.038 1.637-1.697z"></path>
</symbol>
<symbol id="icon-soundcloud" viewBox="0 0 32 32">
<title>soundcloud</title>
<path d="M27.874 16.069c-0.565 0-1.105 0.11-1.596 0.308-0.328-3.574-3.447-6.377-7.25-6.377-0.931 0-1.834 0.176-2.635 0.474-0.311 0.116-0.393 0.235-0.393 0.466v12.585c0 0.243 0.195 0.445 0.441 0.469 0.011 0.001 11.36 0.007 11.434 0.007 2.278 0 4.125-1.776 4.125-3.965s-1.848-3.966-4.126-3.966zM12.5 24h1l0.5-7.007-0.5-6.993h-1l-0.5 6.993zM9.5 24h-1l-0.5-5.086 0.5-4.914h1l0.5 5zM4.5 24h1l0.5-4-0.5-4h-1l-0.5 4zM0.5 22h1l0.5-2-0.5-2h-1l-0.5 2z"></path>
</symbol>
<symbol id="icon-spotify" viewBox="0 0 16 16">
<title>spotify</title>
<path d="M8 0c-4.4 0-8 3.6-8 8s3.6 8 8 8 8-3.6 8-8-3.559-8-8-8zM11.681 11.559c-0.159 0.241-0.441 0.319-0.681 0.159-1.881-1.159-4.241-1.4-7.041-0.759-0.281 0.081-0.519-0.119-0.6-0.359-0.081-0.281 0.119-0.519 0.359-0.6 3.041-0.681 5.681-0.4 7.759 0.881 0.281 0.119 0.322 0.438 0.203 0.678zM12.641 9.359c-0.2 0.281-0.559 0.4-0.841 0.2-2.159-1.319-5.441-1.719-7.959-0.919-0.319 0.081-0.681-0.081-0.759-0.4-0.081-0.319 0.081-0.681 0.4-0.759 2.919-0.881 6.519-0.441 9 1.081 0.238 0.119 0.359 0.519 0.159 0.797zM12.719 7.119c-2.559-1.519-6.841-1.681-9.281-0.919-0.4 0.119-0.8-0.119-0.919-0.481-0.119-0.4 0.119-0.8 0.481-0.919 2.841-0.841 7.519-0.681 10.481 1.081 0.359 0.2 0.481 0.681 0.281 1.041-0.203 0.278-0.681 0.397-1.044 0.197z"></path>
</symbol>
<symbol id="icon-logo" viewBox="0 0 16 16">
<title>logo</title>
<g>
	<path class="st0" d="M0.8,8.3l6.9,7.6c0.2,0.2,0.4,0.2,0.6,0c0,0,0,0,0,0l6.9-7.6c0.1-0.1,0.1-0.4,0-0.5L12.5,4
		c-0.1-0.1-0.2-0.2-0.3-0.2H3.8C3.7,3.9,3.6,3.9,3.5,4L0.7,7.8C0.6,8,0.6,8.2,0.8,8.3z M11,8.4h3l-4.9,5.4L11,8.4z M8,14.4l-2.2-6
		h4.3L8,14.4z M8,5l1.9,2.7H6.1L8,5z M5.4,7.2L4.5,4.7h2.7L5.4,7.2z M8.8,4.7h2.7l-0.9,2.5L8.8,4.7z M5,8.4l1.9,5.4L2,8.4L5,8.4z
		 M14.1,7.6h-2.8L12.2,5L14.1,7.6z M3.8,5l0.9,2.6H1.9L3.8,5z"/>
	<path class="st0" d="M10.6,1.3L9.9,2.1c-0.2,0.1-0.2,0.4,0,0.6c0.1,0.2,0.4,0.2,0.6,0c0,0,0,0,0,0l0.7-0.7c0.1-0.2,0.1-0.4,0-0.6
		C11,1.2,10.8,1.2,10.6,1.3z"/>
	<path class="st0" d="M4.8,1.3c-0.2,0.2-0.2,0.4,0,0.6c0,0,0,0,0,0l0.7,0.7c0.2,0.2,0.4,0.2,0.6,0c0.2-0.2,0.2-0.4,0-0.6L5.4,1.3
		C5.2,1.2,5,1.2,4.8,1.3z"/>
	<path class="st0" d="M7.6,0.4v1c0,0.2,0.2,0.4,0.4,0.4c0.2,0,0.4-0.2,0.4-0.4v-1C8.4,0.2,8.2,0,8,0C7.8,0,7.6,0.2,7.6,0.4z"/>
</g>
</symbol>
</defs>
</svg>
